<svg width="17" height="17" viewBox="0 0 17 17" fill="none" xmlns="http://www.w3.org/2000/svg">
<path d="M11.1666 6.021C12.2275 6.021 13.2449 6.44242 13.9951 7.19257C14.7452 7.94271 15.1666 8.96013 15.1666 10.021V14.6877H12.5V10.021C12.5 9.66737 12.3595 9.32824 12.1094 9.07819C11.8594 8.82814 11.5202 8.68766 11.1666 8.68766C10.813 8.68766 10.4739 8.82814 10.2238 9.07819C9.97377 9.32824 9.83329 9.66737 9.83329 10.021V14.6877H7.16663V10.021C7.16663 8.96013 7.58805 7.94271 8.3382 7.19257C9.08834 6.44242 10.1058 6.021 11.1666 6.021Z" stroke="white" style="stroke:white;stroke-opacity:1;" stroke-width="1.33333" stroke-linecap="round" stroke-linejoin="round"/>
<path d="M4.50004 6.6875H1.83337V14.6875H4.50004V6.6875Z" stroke="white" style="stroke:white;stroke-opacity:1;" stroke-width="1.33333" stroke-linecap="round" stroke-linejoin="round"/>
<path d="M3.16671 4.68766C3.90309 4.68766 4.50004 4.09071 4.50004 3.35433C4.50004 2.61795 3.90309 2.021 3.16671 2.021C2.43033 2.021 1.83337 2.61795 1.83337 3.35433C1.83337 4.09071 2.43033 4.68766 3.16671 4.68766Z" stroke="white" style="stroke:white;stroke-opacity:1;" stroke-width="1.33333" stroke-linecap="round" stroke-linejoin="round"/>
</svg>
