<svg width="17" height="17" viewBox="0 0 17 17" fill="none" xmlns="http://www.w3.org/2000/svg">
<g clip-path="url(#clip0_39_117)">
<path d="M11.8334 2.021H5.16671C3.32576 2.021 1.83337 3.51338 1.83337 5.35433V12.021C1.83337 13.8619 3.32576 15.3543 5.16671 15.3543H11.8334C13.6743 15.3543 15.1667 13.8619 15.1667 12.021V5.35433C15.1667 3.51338 13.6743 2.021 11.8334 2.021Z" stroke="white" style="stroke:white;stroke-opacity:1;" stroke-width="1.33333" stroke-linecap="round" stroke-linejoin="round"/>
<path d="M11.1667 8.2677C11.2489 8.82253 11.1542 9.38918 10.8958 9.88704C10.6375 10.3849 10.2288 10.7886 9.72776 11.0408C9.22675 11.293 8.65897 11.3808 8.1052 11.2917C7.55143 11.2025 7.03985 10.9411 6.64323 10.5445C6.24662 10.1479 5.98516 9.63628 5.89605 9.08251C5.80694 8.52874 5.89472 7.96096 6.14689 7.45995C6.39907 6.95894 6.8028 6.55019 7.30066 6.29186C7.79853 6.03353 8.36518 5.93876 8.92001 6.02103C9.48596 6.10496 10.0099 6.36868 10.4145 6.77324C10.819 7.1778 11.0828 7.70175 11.1667 8.2677Z" stroke="white" style="stroke:white;stroke-opacity:1;" stroke-width="1.33333" stroke-linecap="round" stroke-linejoin="round"/>
<path d="M12.1666 5.021H12.1733" stroke="white" style="stroke:white;stroke-opacity:1;" stroke-width="1.33333" stroke-linecap="round" stroke-linejoin="round"/>
</g>
<defs>
<clipPath id="clip0_39_117">
<rect width="16" height="16" fill="white" style="fill:white;fill-opacity:1;" transform="translate(0.5 0.6875)"/>
</clipPath>
</defs>
</svg>
